<svg width="34" height="30" viewBox="0 0 34 30" fill="none" xmlns="http://www.w3.org/2000/svg">
<path d="M30.1066 2.92125C29.2435 2.23579 25.7502 0.0505185 17.9618 0.0212253C17.9618 0.0212253 8.78022 -0.453324 4.30834 3.08529C1.82095 5.22956 0.944243 8.37564 0.849097 12.2716C0.753951 16.1676 0.638416 23.4675 8.8006 25.4477H8.8074L8.8006 28.4708C8.8006 28.4708 8.74623 29.6952 9.6841 29.9413C10.8123 30.2459 11.4783 29.3144 12.5589 28.3126C13.1501 27.7619 13.9657 26.9534 14.5841 26.3382C20.1706 26.7425 24.459 25.8168 24.9483 25.6821C26.0764 25.3657 32.458 24.6627 33.4911 17.3628C34.5648 9.82859 32.9745 5.07137 30.1066 2.92125ZM31.0512 16.8121C30.1745 22.9051 25.0026 23.2917 24.0512 23.5554C23.6434 23.6667 19.8715 24.4752 15.1346 24.2115C15.1346 24.2115 11.6006 27.8849 10.4996 28.8399C10.1394 29.1504 9.74527 29.1211 9.75207 28.5059C9.75207 28.1017 9.77925 23.4851 9.77925 23.4851C9.77245 23.4851 9.77245 23.4851 9.77925 23.4851C2.86076 21.8329 3.26853 15.6169 3.34329 12.3654C3.41805 9.11383 4.13164 6.44815 6.23845 4.65541C10.0239 1.6968 17.8191 2.13619 17.8191 2.13619C24.4046 2.15963 27.558 3.87035 28.292 4.4445C30.7182 6.23724 31.9551 10.5258 31.0512 16.8121ZM21.6046 12.0783C21.6318 12.5821 20.755 12.6173 20.7279 12.1135C20.6531 10.8246 19.9531 10.1977 18.5123 10.1274C17.9278 10.0981 17.9822 9.34232 18.5599 9.37161C20.456 9.45949 21.5094 10.3969 21.6046 12.0783ZM22.9842 12.7403C23.0522 10.2563 21.2512 8.3112 17.8327 8.09443C17.255 8.05928 17.3162 7.30351 17.8939 7.33867C21.8356 7.58473 23.9357 9.92233 23.8609 12.7579C23.8541 13.2617 22.9706 13.2383 22.9842 12.7403ZM26.1784 13.5254C26.1852 14.0292 25.3017 14.0351 25.3017 13.5312C25.2609 8.75646 21.5706 6.15522 17.0919 6.12593C16.5142 6.12007 16.5142 5.37016 17.0919 5.37016C22.1007 5.39946 26.1308 8.3815 26.1784 13.5254ZM25.4104 19.2727V19.2844C24.6764 20.3976 23.3036 21.6279 21.89 21.2354L21.8764 21.2178C20.4424 20.8721 17.0647 19.3723 14.9307 17.9076C13.8298 17.1577 12.8239 16.2731 12.0492 15.4236C11.3492 14.6678 10.6424 13.7715 9.95595 12.6935C8.50837 10.4379 8.18895 9.4302 8.18895 9.4302C7.73361 8.2116 9.154 7.02816 10.4521 6.39542H10.4657C11.0909 6.11421 11.689 6.20795 12.0899 6.62391C12.0899 6.62391 12.9327 7.49099 13.2929 7.91867C13.6327 8.31706 14.088 8.95565 14.3259 9.31303C14.7404 9.95162 14.4822 10.6019 14.0744 10.8714L13.2589 11.4339C12.8443 11.7209 12.8987 12.2541 12.8987 12.2541C12.8987 12.2541 14.1084 16.1969 18.6279 17.1929C18.6279 17.1929 19.2463 17.2398 19.5793 16.8824L20.2317 16.1794C20.5444 15.8278 21.2987 15.6052 22.0395 15.9626C23.0386 16.4488 24.3094 17.2046 25.1522 17.8901C25.6279 18.224 25.7366 18.7337 25.4104 19.2727Z" fill="white"/>
</svg>
