<svg width="34" height="30" viewBox="0 0 34 30" fill="none" xmlns="http://www.w3.org/2000/svg">
<path d="M0.828003 30L3.19761 22.0038C1.2866 18.889 0.679465 15.2541 1.48758 11.7664C2.2957 8.27863 4.4649 5.17188 7.5971 3.01622C10.7293 0.860631 14.6144 -0.199308 18.5396 0.0309629C22.4647 0.261233 26.1665 1.76631 28.9657 4.26993C31.765 6.77355 33.4739 10.1078 33.7788 13.6609C34.0837 17.214 32.9643 20.7474 30.6258 23.613C28.2874 26.4786 24.8868 28.484 21.0482 29.2614C17.2095 30.0386 13.1903 29.5356 9.72799 27.8446L0.828003 30ZM10.1571 24.8523L10.7075 25.1482C13.2153 26.495 16.1445 27.0524 19.0385 26.7334C21.9324 26.4144 24.6286 25.2369 26.7069 23.3846C28.7852 21.5323 30.1288 19.1091 30.5284 16.4927C30.928 13.8762 30.3611 11.2135 28.916 8.91944C27.471 6.62539 25.229 4.82883 22.5394 3.80978C19.8498 2.7908 16.8637 2.60653 14.0464 3.28568C11.2292 3.96483 8.73902 5.46932 6.96399 7.56469C5.18898 9.65999 4.22878 12.2285 4.23311 14.8698C4.2308 17.06 4.89926 19.2078 6.16424 21.074L6.50944 21.5897L5.18472 26.0526L10.1571 24.8523Z" fill="white"/>
<path fill-rule="evenodd" clip-rule="evenodd" d="M23.5161 16.9231C23.1934 16.6873 22.8156 16.5213 22.4114 16.4378C22.0073 16.3543 21.5874 16.3555 21.1838 16.4413C20.5774 16.6695 20.1856 17.5316 19.7938 17.9628C19.7112 18.0661 19.5898 18.1386 19.4523 18.1666C19.3149 18.1946 19.171 18.1762 19.0475 18.1149C16.8274 17.3271 14.9666 15.8823 13.7672 14.0154C13.6648 13.8989 13.6164 13.751 13.6321 13.6028C13.6478 13.4545 13.7263 13.3176 13.8511 13.2209C14.2881 12.8289 14.609 12.3434 14.784 11.8093C14.8229 11.2201 14.674 10.6333 14.3549 10.1188C14.1083 9.39735 13.6389 8.75503 13.0022 8.26762C12.6739 8.13381 12.3097 8.08899 11.9538 8.13846C11.5979 8.18794 11.2655 8.32968 10.9964 8.54658C10.5295 8.91158 10.1589 9.36688 9.91188 9.87886C9.6648 10.3908 9.54771 10.9465 9.56914 11.505C9.57051 11.8186 9.61444 12.1308 9.69971 12.4348C9.91635 13.165 10.2495 13.8627 10.6886 14.5056C11.0054 14.9982 11.3511 15.475 11.7241 15.9341C12.9364 17.4421 14.4604 18.7224 16.2114 19.704C17.0901 20.2028 18.0291 20.6084 19.0101 20.9127C20.0292 21.3312 21.1543 21.4919 22.266 21.3776C22.8994 21.2907 23.4995 21.0641 24.0136 20.7178C24.5276 20.3714 24.9399 19.9159 25.214 19.3912C25.375 19.0743 25.4239 18.72 25.3539 18.3769C25.186 17.6754 24.1504 17.2612 23.5161 16.9231Z" fill="white"/>
</svg>
